PathFileType	4	(X/Y/Z)	c:/Users/goper/Files/vsCode/490R/osim_files/C04/C04_Slow_04.trc
DataRate	CameraRate	NumFrames	NumMarkers	Units                	OrigDataRate	OrigDataStartFrame	OrigNumFrames
250.00	250.00	9	36	mm	250.0	2337	3738
                Frame#	Time	LPSIS			LASIS			LTH1			LTH2			LTH3			LTH4			LLFE			LMFE			LSH1			LSH2			LSH3			LSH4			LLMAL			LMMAL			LCAL			LMTP5			LTOE			LMTP1			RPSIS			RASIS			RTH1			RTH2			RTH3			RTH4			RLFE			RMFE			RSH1			RSH2			RSH3			RSH4			RLMAL			RMMAL			RCAL			RMTP1			RTOE			RMTP5		
		X1	Y1	Z1	X2	Y2	Z2	X3	Y3	Z3	X4	Y4	Z4	X5	Y5	Z5	X6	Y6	Z6	X7	Y7	Z7	X8	Y8	Z8	X9	Y9	Z9	X10	Y10	Z10	X11	Y11	Z11	X12	Y12	Z12	X13	Y13	Z13	X14	Y14	Z14	X15	Y15	Z15	X16	Y16	Z16	X17	Y17	Z17	X18	Y18	Z18	X19	Y19	Z19	X20	Y20	Z20	X21	Y21	Z21	X22	Y22	Z22	X23	Y23	Z23	X24	Y24	Z24	X25	Y25	Z25	X26	Y26	Z26	X27	Y27	Z27	X28	Y28	Z28	X29	Y29	Z29	X30	Y30	Z30	X31	Y31	Z31	X32	Y32	Z32	X33	Y33	Z33	X34	Y34	Z34	X35	Y35	Z35	X36	Y36	Z36

2337	9.34400	-1828.99780	956.89319	206.43433	0.00000	0.00000	0.00000	-1922.59106	666.35040	381.48062	0.00000	0.00000	0.00000	-1962.10181	694.20911	338.96564	-1979.82288	632.65503	329.53638	-1904.27356	434.47629	325.07605	-1916.29163	411.40204	210.50626	-1834.90588	381.92999	311.19601	0.00000	0.00000	0.00000	-1868.51428	337.41412	314.57242	-1830.48706	313.35336	320.42270	-1611.82458	185.48297	297.53784	-1608.72144	211.16919	220.07733	-1545.36157	255.91908	268.12643	-1598.09546	48.25780	291.26404	0.00000	0.00000	0.00000	-1579.34302	76.51551	192.98302	-1834.97485	963.13623	131.42917	-1993.32117	885.85681	177.60890	-1952.37341	713.06622	-3.43881	-1965.53918	653.92871	11.13937	-2019.88123	731.74554	11.29715	-2043.45984	676.31256	25.60008	-2067.69556	454.57227	77.88161	-2056.23853	451.16776	182.19604	-2019.23401	319.10257	53.18939	-2030.15112	272.48126	64.34520	0.00000	0.00000	0.00000	-2085.36743	288.24606	60.42466	-2049.20923	72.13250	96.73094	-2054.98975	81.96510	184.32611	-1978.37915	41.77275	135.50188	-2182.58228	29.13363	197.47501	-2210.80713	53.37879	163.68306	-2188.95190	19.72312	100.28944
2338	9.34800	-1831.44922	958.00977	205.04735	0.00000	0.00000	0.00000	-1928.57532	666.18060	380.53217	0.00000	0.00000	0.00000	-1967.59412	694.25623	338.26505	-1985.78455	632.91174	328.99066	-1912.16235	434.68463	324.83041	-1923.92712	411.72806	210.15904	-1843.24817	382.80286	311.00766	0.00000	0.00000	0.00000	-1876.69006	337.98032	314.05487	-1838.56958	314.06833	320.13464	-1618.73645	188.45297	297.51004	-1615.92920	213.87054	220.06049	-1553.23389	259.46167	267.80157	-1603.26624	50.33562	290.47601	0.00000	0.00000	0.00000	-1585.18799	79.33041	193.28700	-1838.81726	963.60748	130.75023	-1997.36560	886.27008	177.19438	-1955.34546	713.41132	-3.85884	-1968.32275	654.25708	10.84117	-2023.10156	732.01215	10.65973	-2046.32629	676.33124	25.00687	-2069.61279	454.60141	77.56356	-2058.28491	451.28308	181.66307	-2020.21729	319.03418	53.03307	-2030.91699	272.38879	64.25838	0.00000	0.00000	0.00000	-2086.43213	288.00256	60.03698	-2049.36230	72.07449	96.78125	-2055.21045	81.95269	184.31813	-1978.48474	41.83031	135.54414	-2182.78027	28.56739	197.55124	-2210.94189	52.81236	163.75145	-2189.04834	19.38671	100.35121
2339	9.35200	-1835.05627	958.28168	204.30730	0.00000	0.00000	0.00000	-1934.54944	666.01929	379.63721	0.00000	0.00000	0.00000	-1973.04004	694.45819	337.57401	-1991.85327	633.15265	328.34738	-1919.98621	435.04831	324.56351	-1931.58203	412.06183	209.88350	-1851.85034	383.26108	310.20105	0.00000	0.00000	0.00000	-1885.04333	338.21921	313.25986	-1846.51880	314.85864	319.80890	-1625.92004	190.92764	297.24765	-1623.33337	216.10435	219.97041	-1560.88745	262.44305	267.46545	-1608.09985	52.85054	290.59607	0.00000	0.00000	0.00000	-1591.39026	81.72290	193.41368	-1842.63733	964.03528	130.16397	-2001.42200	886.50964	177.05000	-1958.30615	713.73584	-4.25173	-1971.11194	654.61420	10.54695	-2026.13379	732.14264	10.04938	-2049.28735	676.36713	24.56502	-2071.60596	454.73257	77.19953	-2060.37158	451.46533	181.20265	-2021.07886	319.03888	52.83374	-2029.84888	272.27472	64.52750	0.00000	0.00000	0.00000	-2087.26709	287.69919	59.64748	-2049.53149	72.01003	96.85759	-2055.24390	81.97317	184.31139	-1978.51453	41.89557	135.54124	-2182.83105	28.05968	197.65184	-2211.17725	52.37372	163.88330	-2189.05664	19.16874	100.40178
2340	9.35600	-1839.82703	958.92310	204.05766	0.00000	0.00000	0.00000	0.00000	0.00000	0.00000	0.00000	0.00000	0.00000	-1978.47180	694.60779	336.93765	-1997.64587	633.56616	327.88553	-1927.87744	435.33496	324.35303	-1939.37817	412.39828	209.59398	-1860.47852	383.93787	309.72440	0.00000	0.00000	0.00000	-1893.30786	338.76300	312.84552	-1858.46912	314.88788	320.34055	-1632.72546	193.25131	297.00726	-1630.38696	218.19806	219.74835	-1568.17761	264.96872	266.89731	-1613.83923	55.35141	290.87991	0.00000	0.00000	0.00000	-1597.72400	83.97221	193.39958	-1846.68909	964.31116	129.57736	-2005.53894	886.88184	176.69945	-1961.39453	714.06708	-4.65660	-1973.92444	654.95111	10.11952	-2022.95837	734.56488	6.76416	-2052.25879	676.55750	24.07603	-2073.62524	454.80106	77.06616	-2062.30444	451.54974	180.75620	-2022.03992	319.04898	52.61955	-2032.50256	272.39157	63.91742	0.00000	0.00000	0.00000	-2088.04785	287.38431	59.22105	-2049.67480	71.98800	96.86650	-2055.40283	81.91329	184.25511	-1978.61975	41.92260	135.55641	-2182.79395	27.74939	197.83557	-2211.21216	51.99166	163.88286	-2189.12109	19.00563	100.48950
2341	9.36000	-1843.61389	959.16486	203.54533	0.00000	0.00000	0.00000	0.00000	0.00000	0.00000	0.00000	0.00000	0.00000	-1983.92053	694.90729	336.32593	-2003.62048	633.90924	327.37485	-1935.93872	435.73273	324.12994	-1947.04822	412.95300	209.25327	-1868.95508	384.67325	309.30069	0.00000	0.00000	0.00000	-1901.73669	339.15051	312.11206	0.00000	0.00000	0.00000	-1639.37781	195.45821	296.86563	-1637.24060	220.18134	219.47939	-1575.03308	267.03214	266.25662	-1620.86340	57.59710	291.02728	0.00000	0.00000	0.00000	-1604.68555	86.06488	193.35745	-1850.35046	964.86926	128.94077	-2009.59949	887.19513	176.52951	-1964.40845	714.55872	-5.10709	-1976.87158	655.34448	9.76673	-2020.22327	736.90973	3.74504	-2055.12744	676.66730	23.57006	-2075.61377	454.92188	76.87016	-2064.45190	451.70358	180.36746	-2022.92590	319.11026	52.26171	0.00000	0.00000	0.00000	0.00000	0.00000	0.00000	-2089.06396	287.11938	58.75983	-2049.78296	71.98167	96.84666	-2055.46143	81.94097	184.23824	-1978.59692	42.05421	135.50519	-2182.83667	27.48633	197.91672	-2211.22510	51.79267	163.90834	-2189.19141	18.90462	100.55905
2342	9.36400	-1847.61499	959.31171	203.12201	0.00000	0.00000	0.00000	0.00000	0.00000	0.00000	0.00000	0.00000	0.00000	-1989.32837	695.05115	335.70175	-2009.77100	634.13910	326.75739	-1943.76611	436.18762	323.92316	-1954.60217	413.54410	208.96153	0.00000	0.00000	0.00000	0.00000	0.00000	0.00000	-1910.08240	339.56433	311.41183	-1872.11633	362.53769	338.89880	-1646.48926	197.34821	296.47473	-1644.17432	222.14604	219.19987	-1581.77234	268.77066	265.58481	-1628.57544	59.55361	291.03851	0.00000	0.00000	0.00000	-1612.41736	87.82099	193.36865	-1854.16174	965.27643	128.46341	-2013.53711	887.38885	176.45317	-1967.43835	714.95599	-5.53538	-1979.65356	655.75049	9.35159	-2024.30444	736.79456	3.80302	-2058.09790	676.86615	23.17840	-2077.56714	455.05704	76.52493	-2066.46436	451.80875	180.00694	-2023.96558	319.11505	51.95991	0.00000	0.00000	0.00000	0.00000	0.00000	0.00000	-2089.73535	286.82190	58.33097	-2049.87988	71.98512	96.87749	-2055.66504	81.93329	184.13727	-1978.62830	42.14201	135.49318	-2182.93726	27.22865	198.03133	-2211.39355	51.48604	163.94360	-2189.19312	18.79926	100.59708
2343	9.36800	-1851.30835	959.65155	202.62701	0.00000	0.00000	0.00000	0.00000	0.00000	0.00000	0.00000	0.00000	0.00000	-1994.79980	695.28937	335.08896	-2015.50354	634.55048	326.22516	-1951.66321	436.64755	323.76663	-1962.10193	414.21890	208.62633	0.00000	0.00000	0.00000	0.00000	0.00000	0.00000	-1918.47363	340.20752	310.92831	0.00000	0.00000	0.00000	-1653.69824	199.27222	296.02426	-1651.33630	224.13634	218.93333	-1588.29541	270.31625	264.93573	-1636.86304	61.21433	290.93906	0.00000	0.00000	0.00000	-1620.91394	89.36610	193.43333	-1857.97913	965.70703	127.93839	-2017.44141	887.75793	176.25652	-1970.45996	715.41113	-5.97467	-1982.54150	656.16724	8.95361	-2028.30005	736.73151	3.79063	-2060.97363	676.99542	22.77729	-2079.62402	455.04630	76.39359	-2068.37134	451.76804	179.68304	-2024.96716	319.21835	51.52109	0.00000	0.00000	0.00000	0.00000	0.00000	0.00000	-2090.74609	286.54883	58.00996	-2049.95337	72.00257	96.81286	-2055.80249	81.95831	184.05190	-1978.60156	42.26352	135.45566	-2182.99634	26.97012	198.11087	-2211.44849	51.31881	163.91437	-2189.26733	18.67351	100.61545
2344	9.37200	-1854.99243	959.98785	202.21468	0.00000	0.00000	0.00000	0.00000	0.00000	0.00000	0.00000	0.00000	0.00000	-2000.17297	695.58295	334.47433	-2020.71448	635.19604	325.97403	-1959.63672	437.18750	323.54660	-1969.77795	414.85086	208.30476	0.00000	0.00000	0.00000	0.00000	0.00000	0.00000	-1926.74451	340.59445	310.31436	0.00000	0.00000	0.00000	-1660.87537	201.06113	295.63297	-1658.65771	225.91104	218.56403	-1594.91370	271.63666	264.30447	-1644.98340	63.30029	291.35257	0.00000	0.00000	0.00000	-1629.63452	90.87199	193.42563	-1861.50110	966.32410	127.49456	-2021.31592	888.08453	176.08960	-1973.46289	715.90997	-6.50302	-1985.27795	656.58423	8.47891	-2032.01624	736.79218	3.76550	-2063.94873	677.23236	22.46928	-2081.41724	455.02927	76.06340	-2070.45190	451.82800	179.39458	-2026.09546	319.20779	51.11663	0.00000	0.00000	0.00000	0.00000	0.00000	0.00000	-2091.63110	286.28470	57.64600	-2050.10522	72.00952	96.79320	-2055.80298	82.02692	184.00693	-1978.66687	42.37509	135.44603	-2183.10449	26.72486	198.13029	-2215.65967	48.94208	158.83276	-2189.31372	18.51250	100.62238
2345	9.37600	-1858.85913	960.39630	201.76833	0.00000	0.00000	0.00000	-1955.95837	721.21387	376.08847	0.00000	0.00000	0.00000	-2005.67554	695.88708	333.92242	0.00000	0.00000	0.00000	-1967.45642	437.78006	323.32202	-1977.33386	415.64722	207.95581	0.00000	0.00000	0.00000	-1871.68481	331.89514	332.25449	-1935.01208	341.20782	309.60086	0.00000	0.00000	0.00000	-1668.34863	202.55209	295.23328	-1665.11462	230.22644	217.44810	-1601.75830	272.71942	263.58292	-1653.96973	64.72637	291.33395	0.00000	0.00000	0.00000	-1638.46118	92.32912	193.43419	-1865.18665	966.77484	127.04429	-2025.20862	888.38849	175.74767	-1976.55664	716.32709	-6.90279	-1988.10681	656.99426	8.03251	-2035.14600	737.04102	3.48362	-2066.80005	677.36011	22.10183	-2083.18774	454.94775	75.65875	-2072.37549	451.79153	179.07857	-2027.19995	319.26859	50.67158	0.00000	0.00000	0.00000	0.00000	0.00000	0.00000	-2092.68433	286.06689	57.35039	-2050.26172	72.01255	96.76939	-2055.95679	82.08817	183.89577	-1978.66284	42.51641	135.41472	-2191.17139	21.94271	192.35390	-2215.73047	48.64593	158.81786	-2189.40503	18.36238	100.62376
